<svg xmlns="http://www.w3.org/2000/svg" viewBox="0 0 1000 1000">
  <g fill="#D4A843" opacity="0.78">
    <path d="M320 365c-31 20-51 54-51 93 0 61 49 110 110 110 36 0 68-17 88-44-13 5-27 8-42 8-61 0-110-49-110-110 0-21 6-40 16-57z"/>
    <path d="M110 314l9 25 26 1-21 15 7 26-21-15-22 15 8-26-21-15 26-1z"/>
    <path d="M823 300l9 25 26 1-21 15 7 26-21-15-22 15 8-26-21-15 26-1z"/>
    <path d="M67 425l7 20 21 1-17 12 6 21-17-12-17 12 6-21-17-12 21-1z"/>
    <path d="M510 420l7 20 21 1-17 12 6 21-17-12-17 12 6-21-17-12 21-1z"/>
    <path d="M897 506l7 20 21 1-17 12 6 21-17-12-17 12 6-21-17-12 21-1z"/>
    <path d="M624 270l8 21 22 1-18 13 6 22-18-13-18 13 6-22-18-13 22-1z"/>
    <path d="M442 300l5 14 15 1-12 9 4 15-12-9-12 9 4-15-12-9 15-1z"/>
    <path d="M698 313l5 14 15 1-12 9 4 15-12-9-12 9 4-15-12-9 15-1z"/>
    <path d="M274 247l5 14 15 1-12 9 4 15-12-9-12 9 4-15-12-9 15-1z"/>
    <path d="M946 284l7 20 21 1-17 12 6 21-17-12-17 12 6-21-17-12 21-1z"/>
    <path d="M379 528l5 14 15 1-12 9 4 15-12-9-12 9 4-15-12-9 15-1z"/>
    <path d="M265 468l4 11 12 1-10 7 4 12-10-7-10 7 4-12-10-7 12-1z"/>
    <path d="M758 407l3 9 10 1-8 6 3 10-8-6-8 6 3-10-8-6 10-1z"/>
    <circle cx="756" cy="468" r="3"/>
    <path d="M89 600l7 20 21 1-17 12 6 21-17-12-17 12 6-21-17-12 21-1z"/>
  </g>

  <g fill="#1B7A4E" opacity="0.82">
    <path d="M0 1000V826c0-43 25-74 59-89 34 15 59 46 59 89v174z"/>
    <path d="M31 750v-42h8v42z"/>
    <path d="M27 710c0-18 16-25 16-42 0 17 16 24 16 42z"/>

    <path d="M59 1000V834c0-56 37-96 86-115 49 19 86 59 86 115v166z"/>
    <path d="M139 724v-76h10v76z"/>
    <path d="M134 650c0-24 20-33 20-56 0 23 20 32 20 56z"/>

    <path d="M164 1000V730c0-62 36-107 86-126 50 19 86 64 86 126v270z"/>
    <path d="M211 640v-67h10v67z"/>
    <path d="M206 575c0-22 19-30 19-51 0 21 19 29 19 51z"/>
    <path d="M202 1000V782h92v218z"/>
    <path fill="#F7F2E6" opacity="0.64" d="M216 760c0-25 17-40 34-40s34 15 34 40v48h-68z"/>
    <path fill="#F7F2E6" opacity="0.64" d="M235 768c0-15 10-25 15-25s15 10 15 25v40h-30z"/>

    <path d="M333 1000V832c0-44 26-75 61-90 35 15 61 46 61 90v168z"/>
    <path d="M389 752v-47h8v47z"/>
    <path d="M385 707c0-18 16-25 16-42 0 17 16 24 16 42z"/>

    <path d="M394 1000V762c0-82 66-143 125-181 59 38 125 99 125 181v238z"/>
    <path d="M512 602v-86h8v86z"/>
    <path d="M515 516c-14-2-24-14-24-28 0-15 11-27 26-29-8 6-13 15-13 25 0 16 12 29 28 31-5 2-10 2-17 1z"/>
    <path d="M500 650c0-28 19-46 19-72 0 26 19 44 19 72z"/>

    <path d="M620 1000V730c0-62 36-107 86-126 50 19 86 64 86 126v270z"/>
    <path d="M667 640v-67h10v67z"/>
    <path d="M662 575c0-22 19-30 19-51 0 21 19 29 19 51z"/>
    <path d="M658 1000V782h92v218z"/>
    <path fill="#F7F2E6" opacity="0.64" d="M672 760c0-25 17-40 34-40s34 15 34 40v48h-68z"/>
    <path fill="#F7F2E6" opacity="0.64" d="M691 768c0-15 10-25 15-25s15 10 15 25v40h-30z"/>

    <path d="M768 1000V834c0-56 37-96 86-115 49 19 86 59 86 115v166z"/>
    <path d="M848 724v-76h10v76z"/>
    <path d="M843 650c0-24 20-33 20-56 0 23 20 32 20 56z"/>

    <path d="M882 1000V826c0-43 25-74 59-89 34 15 59 46 59 89v174z"/>
    <path d="M937 750v-42h8v42z"/>
    <path d="M933 710c0-18 16-25 16-42 0 17 16 24 16 42z"/>

    <rect x="0" y="845" width="1000" height="155"/>
  </g>
</svg>
